<svg width="33" height="33" viewBox="0 0 33 33" fill="none" xmlns="http://www.w3.org/2000/svg">
<path d="M8.3166 6.15609L9.05543 8.28332L1.73435 12.2579L9.05543 16.2884L8.3166 18.3597L0.0999756 13.5734V10.9424L8.3166 6.15609Z" fill="#00F4BA"/>
<path d="M23.8833 6.15609L32.1 10.9424V13.5734L23.8833 18.3597L23.1445 16.2884L30.4656 12.2579L23.1445 8.28332L23.8833 6.15609Z" fill="#00F4BA"/>
<path d="M16.595 5.19172C15.9763 5.19172 15.4634 4.95762 15.0563 4.48943C14.6655 4.00088 14.4701 3.40037 14.4701 2.6879C14.4701 1.97543 14.6655 1.3851 15.0563 0.916906C15.4634 0.428357 15.9763 0.184082 16.595 0.184082C17.1975 0.184082 17.6941 0.428357 18.0849 0.916906C18.4757 1.3851 18.6711 1.97543 18.6711 2.6879C18.6711 3.40037 18.4757 4.00088 18.0849 4.48943C17.6941 4.95762 17.1975 5.19172 16.595 5.19172ZM18.2803 26.9016C18.2803 28.7744 17.9058 30.1179 17.1568 30.9322C16.4241 31.7668 15.3657 32.1841 13.9817 32.1841H12.4674V28.5505H13.4443C13.9654 28.5505 14.3317 28.4182 14.5434 28.1535C14.7551 27.9093 14.8609 27.5022 14.8609 26.9322V7.20698H18.2803V26.9016Z" fill="#00F4BA"/>
</svg>
