<svg width="40" height="39" viewBox="0 0 40 39" fill="none" xmlns="http://www.w3.org/2000/svg">
<path d="M35.7143 0.141602H4.28571C3.14907 0.141602 2.05898 0.576226 1.25526 1.34986C0.451529 2.1235 0 3.17278 0 4.26686L0 34.5188C0 35.6129 0.451529 36.6621 1.25526 37.4358C2.05898 38.2094 3.14907 38.644 4.28571 38.644H16.5402V25.5541H10.9152V19.3928H16.5402V14.6969C16.5402 9.35555 19.8438 6.40512 24.9036 6.40512C27.3268 6.40512 29.8607 6.82109 29.8607 6.82109V12.0636H27.0688C24.3179 12.0636 23.4598 13.7068 23.4598 15.3922V19.3928H29.6009L28.6188 25.5541H23.4598V38.644H35.7143C36.8509 38.644 37.941 38.2094 38.7447 37.4358C39.5485 36.6621 40 35.6129 40 34.5188V4.26686C40 3.17278 39.5485 2.1235 38.7447 1.34986C37.941 0.576226 36.8509 0.141602 35.7143 0.141602Z" fill="white"/>
</svg>
