<svg width="40" height="39" viewBox="0 0 40 39" fill="none" xmlns="http://www.w3.org/2000/svg">
<path d="M35.7143 0.141602H4.28571C1.91964 0.141602 0 1.98937 0 4.26686V34.5188C0 36.7963 1.91964 38.644 4.28571 38.644H35.7143C38.0804 38.644 40 36.7963 40 34.5188V4.26686C40 1.98937 38.0804 0.141602 35.7143 0.141602ZM24.7589 33.1179C24.0089 33.2468 23.7321 32.7999 23.7321 32.4304C23.7321 31.9663 23.75 29.5942 23.75 27.6777C23.75 26.337 23.2857 25.4862 22.7411 25.0393C26.0446 24.6869 29.5268 24.2486 29.5268 18.7568C29.5268 17.1927 28.9464 16.4106 28 15.4051C28.1518 15.0355 28.6607 13.5143 27.8482 11.5376C26.6071 11.1681 23.7679 13.076 23.7679 13.076C22.5893 12.758 21.3125 12.5947 20.0536 12.5947C18.7946 12.5947 17.5179 12.758 16.3393 13.076C16.3393 13.076 13.5 11.1681 12.2589 11.5376C11.4464 13.5057 11.9464 15.0269 12.1071 15.4051C11.1607 16.4106 10.7143 17.1927 10.7143 18.7568C10.7143 24.2228 14.0446 24.6869 17.3482 25.0393C16.9196 25.4088 16.5357 26.0448 16.4018 26.9558C15.5536 27.3254 13.3839 27.9613 12.0893 25.7612C11.2768 24.4033 9.8125 24.2916 9.8125 24.2916C8.36607 24.2744 9.71429 25.1682 9.71429 25.1682C10.6786 25.5979 11.3571 27.248 11.3571 27.248C12.2232 29.8005 16.3661 28.9411 16.3661 28.9411C16.3661 30.1357 16.3839 32.078 16.3839 32.4304C16.3839 32.7999 16.1161 33.2468 15.3571 33.1179C9.46429 31.2186 5.33929 25.8214 5.33929 19.5131C5.33929 11.6236 11.6071 5.63336 19.8036 5.63336C28 5.63336 34.6429 11.6236 34.6429 19.5131C34.6518 25.8214 30.6518 31.2272 24.7589 33.1179ZM16 27.8668C15.8304 27.9012 15.6696 27.8324 15.6518 27.7207C15.6339 27.5918 15.75 27.4801 15.9196 27.4457C16.0893 27.4285 16.25 27.4972 16.2679 27.609C16.2946 27.7207 16.1786 27.8324 16 27.8668ZM15.1518 27.7894C15.1518 27.9012 15.0179 27.9957 14.8393 27.9957C14.6429 28.0129 14.5089 27.9184 14.5089 27.7894C14.5089 27.6777 14.6429 27.5832 14.8214 27.5832C14.9911 27.566 15.1518 27.6605 15.1518 27.7894ZM13.9286 27.6949C13.8929 27.8066 13.7143 27.8582 13.5625 27.8066C13.3929 27.7723 13.2768 27.6433 13.3125 27.5316C13.3482 27.4199 13.5268 27.3683 13.6786 27.4027C13.8571 27.4543 13.9732 27.5832 13.9286 27.6949ZM12.8304 27.2308C12.75 27.3254 12.5804 27.3082 12.4464 27.1793C12.3125 27.0675 12.2768 26.9042 12.3661 26.8269C12.4464 26.7323 12.6161 26.7495 12.75 26.8785C12.8661 26.9902 12.9107 27.1621 12.8304 27.2308ZM12.0179 26.4487C11.9375 26.5003 11.7857 26.4487 11.6875 26.3198C11.5893 26.1909 11.5893 26.0448 11.6875 25.9846C11.7857 25.9073 11.9375 25.9675 12.0179 26.0964C12.1161 26.2253 12.1161 26.38 12.0179 26.4487ZM11.4375 25.6151C11.3571 25.6924 11.2232 25.6495 11.125 25.5635C11.0268 25.4518 11.0089 25.3229 11.0893 25.2627C11.1696 25.1854 11.3036 25.2283 11.4018 25.3143C11.5 25.426 11.5179 25.5549 11.4375 25.6151ZM10.8393 24.9791C10.8036 25.0565 10.6875 25.0737 10.5893 25.0135C10.4732 24.9619 10.4196 24.8674 10.4554 24.79C10.4911 24.7385 10.5893 24.7127 10.7054 24.7557C10.8214 24.8158 10.875 24.9104 10.8393 24.9791Z" fill="white"/>
</svg>
