<svg width="40" height="39" viewBox="0 0 40 39" fill="none" xmlns="http://www.w3.org/2000/svg">
<path d="M20 14.8086C19.0581 14.809 18.1375 15.0781 17.3546 15.582C16.5716 16.086 15.9615 16.802 15.6013 17.6397C15.2411 18.4774 15.147 19.3991 15.331 20.2882C15.515 21.1773 15.9687 21.994 16.6348 22.6349C17.3009 23.2759 18.1495 23.7123 19.0733 23.8891C19.9971 24.0658 20.9546 23.9749 21.8247 23.6279C22.6949 23.2809 23.4386 22.6933 23.9618 21.9395C24.485 21.1857 24.7643 20.2994 24.7643 19.3928C24.7633 18.177 24.261 17.0113 23.3677 16.1517C22.4744 15.2921 21.2631 14.8091 20 14.8086ZM31.1348 11.285C30.8924 10.6935 30.5263 10.1564 30.0592 9.7068C29.5921 9.25722 29.0341 8.90481 28.4196 8.67144C26.5446 7.95897 22.0804 8.11883 20 8.11883C17.9196 8.11883 13.4598 7.95296 11.5795 8.67144C10.965 8.90481 10.407 9.25722 9.93992 9.7068C9.47285 10.1564 9.10674 10.6935 8.86429 11.285C8.125 13.0898 8.29018 17.3912 8.29018 19.392C8.29018 21.3927 8.125 25.689 8.86786 27.4998C9.11031 28.0912 9.47642 28.6284 9.94349 29.078C10.4106 29.5276 10.9686 29.88 11.583 30.1133C13.458 30.8258 17.9223 30.666 20.0036 30.666C22.0848 30.666 26.5429 30.8318 28.4232 30.1133C29.0376 29.88 29.5957 29.5276 30.0628 29.078C30.5298 28.6284 30.8959 28.0912 31.1384 27.4998C31.8839 25.695 31.7125 21.3936 31.7125 19.3928C31.7125 17.3921 31.8839 13.0966 31.1384 11.2858L31.1348 11.285ZM20 26.4401C18.552 26.4401 17.1364 26.0268 15.9324 25.2525C14.7284 24.4781 13.79 23.3774 13.2359 22.0897C12.6817 20.802 12.5368 19.385 12.8193 18.018C13.1018 16.6509 13.799 15.3952 14.823 14.4096C15.8469 13.424 17.1514 12.7528 18.5717 12.4809C19.9919 12.209 21.464 12.3486 22.8018 12.8819C24.1396 13.4153 25.2831 14.3186 26.0875 15.4775C26.892 16.6365 27.3214 17.999 27.3214 19.3928C27.3226 20.3186 27.134 21.2355 26.7665 22.0911C26.399 22.9466 25.8597 23.7239 25.1797 24.3786C24.4996 25.0332 23.692 25.5522 22.8032 25.906C21.9144 26.2598 20.9618 26.4413 20 26.4401ZM27.6232 13.6948C27.2852 13.695 26.9547 13.5986 26.6735 13.418C26.3924 13.2374 26.1732 12.9805 26.0437 12.6799C25.9143 12.3794 25.8803 12.0486 25.9461 11.7295C26.012 11.4103 26.1746 11.1171 26.4136 10.887C26.6526 10.6569 26.9571 10.5001 27.2886 10.4366C27.6201 10.373 27.9638 10.4056 28.2761 10.53C28.5884 10.6545 28.8554 10.8654 29.0432 11.1359C29.231 11.4064 29.3313 11.7245 29.3313 12.0499C29.3322 12.2659 29.2888 12.4801 29.2036 12.6799C29.1184 12.8798 28.993 13.0616 28.8346 13.2147C28.6763 13.3679 28.488 13.4894 28.2808 13.5724C28.0735 13.6554 27.8513 13.6981 27.6268 13.6982L27.6232 13.6948ZM35.7143 0.141602H4.28571C3.14907 0.141602 2.05898 0.576226 1.25526 1.34986C0.451529 2.1235 0 3.17278 0 4.26686L0 34.5188C0 35.6129 0.451529 36.6621 1.25526 37.4358C2.05898 38.2094 3.14907 38.644 4.28571 38.644H35.7143C36.8509 38.644 37.941 38.2094 38.7447 37.4358C39.5485 36.6621 40 35.6129 40 34.5188V4.26686C40 3.17278 39.5485 2.1235 38.7447 1.34986C37.941 0.576226 36.8509 0.141602 35.7143 0.141602ZM34.1857 25.0651C34.0705 27.2678 33.5482 29.2195 31.8777 30.8232C30.2071 32.4269 28.1813 32.94 25.8955 33.0449C23.5375 33.1729 16.4679 33.1729 14.1098 33.0449C11.8214 32.934 9.80089 32.4304 8.12768 30.8232C6.45446 29.2161 5.92857 27.2635 5.81964 25.0651C5.68661 22.7944 5.68661 15.9886 5.81964 13.7206C5.93482 11.5179 6.45089 9.5661 8.12768 7.96241C9.80446 6.35871 11.8304 5.85165 14.1098 5.7468C16.4679 5.61875 23.5375 5.61875 25.8955 5.7468C28.1839 5.85767 30.2107 6.36129 31.8777 7.96843C33.5446 9.57556 34.0768 11.5282 34.1857 13.7309C34.3188 15.9929 34.3188 22.7927 34.1857 25.0651Z" fill="white"/>
</svg>
