<svg width="53" height="54" viewBox="0 0 53 54" fill="none" xmlns="http://www.w3.org/2000/svg">
<path d="M46.875 0.75H5.625C2.51953 0.75 0 3.26953 0 6.375V47.625C0 50.7305 2.51953 53.25 5.625 53.25H46.875C49.9805 53.25 52.5 50.7305 52.5 47.625V6.375C52.5 3.26953 49.9805 0.75 46.875 0.75ZM28.5703 41.6953C28.5703 46.8047 25.5703 49.1367 21.1992 49.1367C17.25 49.1367 14.9648 47.0977 13.793 44.625L17.8125 42.1992C18.5859 43.5703 19.2891 44.7305 20.9883 44.7305C22.6055 44.7305 23.6367 44.0977 23.6367 41.625V24.8555H28.5703V41.6953ZM40.2422 49.1367C35.6602 49.1367 32.6953 46.957 31.2539 44.0977L35.2734 41.7773C36.3281 43.5 37.7109 44.7773 40.1367 44.7773C42.1758 44.7773 43.4883 43.7578 43.4883 42.3398C43.4883 40.6523 42.1523 40.0547 39.8906 39.0586L38.6602 38.5312C35.0977 37.0195 32.7422 35.1094 32.7422 31.0898C32.7422 27.3867 35.5664 24.5742 39.9609 24.5742C43.1016 24.5742 45.3516 25.6641 46.9688 28.5234L43.125 30.9844C42.2812 29.4727 41.3672 28.875 39.9492 28.875C38.5078 28.875 37.5938 29.7891 37.5938 30.9844C37.5938 32.4609 38.5078 33.0586 40.6289 33.9844L41.8594 34.5117C46.0547 36.3047 48.4102 38.1445 48.4102 42.2695C48.4102 46.6992 44.918 49.1367 40.2422 49.1367Z" fill="#666666"/>
</svg>
