<svg width="40" height="39" viewBox="0 0 40 39" fill="none" xmlns="http://www.w3.org/2000/svg">
<path d="M37.1429 0.141602H2.84821C1.27679 0.141602 0 1.38777 0 2.91756V35.8681C0 37.3979 1.27679 38.644 2.84821 38.644H37.1429C38.7143 38.644 40 37.3979 40 35.8681V2.91756C40 1.38777 38.7143 0.141602 37.1429 0.141602ZM12.0893 33.1437H6.16071V14.7691H12.0982V33.1437H12.0893ZM9.125 12.2596C7.22321 12.2596 5.6875 10.7727 5.6875 8.95075C5.6875 7.12876 7.22321 5.64195 9.125 5.64195C11.0179 5.64195 12.5625 7.12876 12.5625 8.95075C12.5625 10.7813 11.0268 12.2596 9.125 12.2596ZM34.3125 33.1437H28.3839V24.2056C28.3839 22.0742 28.3393 19.3327 25.3036 19.3327C22.2143 19.3327 21.7411 21.6531 21.7411 24.0509V33.1437H15.8125V14.7691H21.5V17.2786H21.5804C22.375 15.8348 24.3125 14.3136 27.1964 14.3136C33.1964 14.3136 34.3125 18.1209 34.3125 23.0712V33.1437Z" fill="white"/>
</svg>
