<svg width="254" height="54" viewBox="0 0 254 54" fill="none" xmlns="http://www.w3.org/2000/svg">
<path d="M35.525 1.27092L39.17 7.07592L7.39998 26.5609L39.17 46.2259L35.12 51.7609L0.919983 30.3859V22.6459L35.525 1.27092Z" fill="#00A78E"/>
<path d="M80.8372 0.540039L115.442 21.915V29.655L81.2872 51.03L77.1922 45.45L108.962 25.83L77.1922 6.25504L80.8372 0.540039Z" fill="#00A78E"/>
<path d="M10.8736 11.3475C9.65761 11.3475 8.64961 10.9795 7.84961 10.2435C7.08161 9.47546 6.69761 8.53146 6.69761 7.41146C6.69761 6.29146 7.08161 5.36346 7.84961 4.62746C8.64961 3.85946 9.65761 3.47546 10.8736 3.47546C12.0576 3.47546 13.0336 3.85946 13.8016 4.62746C14.5696 5.36346 14.9536 6.29146 14.9536 7.41146C14.9536 8.53146 14.5696 9.47546 13.8016 10.2435C13.0336 10.9795 12.0576 11.3475 10.8736 11.3475ZM14.1856 45.4755C14.1856 48.4195 13.4496 50.5315 11.9776 51.8115C10.5376 53.1235 8.45761 53.7795 5.73761 53.7795H2.76161V48.0675H4.68161C5.70561 48.0675 6.42561 47.8595 6.84161 47.4435C7.25761 47.0595 7.46561 46.4195 7.46561 45.5235V14.5155H14.1856V45.4755Z" fill="white"/>
<path d="M32.633 41.5395C30.073 41.5395 27.769 40.9795 25.721 39.8595C23.673 38.7075 22.057 37.0915 20.873 35.0115C19.721 32.9315 19.145 30.5315 19.145 27.8115C19.145 25.0915 19.737 22.6915 20.921 20.6115C22.137 18.5315 23.785 16.9315 25.865 15.8115C27.945 14.6595 30.265 14.0835 32.825 14.0835C35.385 14.0835 37.705 14.6595 39.785 15.8115C41.865 16.9315 43.497 18.5315 44.681 20.6115C45.897 22.6915 46.505 25.0915 46.505 27.8115C46.505 30.5315 45.881 32.9315 44.633 35.0115C43.417 37.0915 41.753 38.7075 39.641 39.8595C37.561 40.9795 35.225 41.5395 32.633 41.5395ZM32.633 35.6835C33.849 35.6835 34.985 35.3955 36.041 34.8195C37.129 34.2115 37.993 33.3155 38.633 32.1315C39.273 30.9475 39.593 29.5075 39.593 27.8115C39.593 25.2835 38.921 23.3475 37.577 22.0035C36.265 20.6275 34.649 19.9395 32.729 19.9395C30.809 19.9395 29.193 20.6275 27.881 22.0035C26.601 23.3475 25.961 25.2835 25.961 27.8115C25.961 30.3395 26.585 32.2915 27.833 33.6675C29.113 35.0115 30.713 35.6835 32.633 35.6835Z" fill="white"/>
<path d="M49.7064 27.7155C49.7064 25.0275 50.2344 22.6435 51.2904 20.5635C52.3784 18.4835 53.8344 16.8835 55.6584 15.7635C57.5144 14.6435 59.5784 14.0835 61.8504 14.0835C63.8344 14.0835 65.5624 14.4835 67.0344 15.2835C68.5384 16.0835 69.7384 17.0915 70.6344 18.3075V14.5155H77.4024V41.1075H70.6344V37.2195C69.7704 38.4675 68.5704 39.5075 67.0344 40.3395C65.5304 41.1395 63.7864 41.5395 61.8024 41.5395C59.5624 41.5395 57.5144 40.9635 55.6584 39.8115C53.8344 38.6595 52.3784 37.0435 51.2904 34.9635C50.2344 32.8515 49.7064 30.4355 49.7064 27.7155ZM70.6344 27.8115C70.6344 26.1795 70.3144 24.7875 69.6744 23.6355C69.0344 22.4515 68.1704 21.5555 67.0824 20.9475C65.9944 20.3075 64.8264 19.9875 63.5784 19.9875C62.3304 19.9875 61.1784 20.2915 60.1224 20.8995C59.0664 21.5075 58.2024 22.4035 57.5304 23.5875C56.8904 24.7395 56.5704 26.1155 56.5704 27.7155C56.5704 29.3155 56.8904 30.7235 57.5304 31.9395C58.2024 33.1235 59.0664 34.0355 60.1224 34.6755C61.2104 35.3155 62.3624 35.6355 63.5784 35.6355C64.8264 35.6355 65.9944 35.3315 67.0824 34.7235C68.1704 34.0835 69.0344 33.1875 69.6744 32.0355C70.3144 30.8515 70.6344 29.4435 70.6344 27.8115ZM55.8504 11.9715C56.1384 9.85946 56.7944 8.29146 57.8184 7.26746C58.8744 6.21146 60.2024 5.68346 61.8024 5.68346C62.4744 5.68346 63.0664 5.79546 63.5784 6.01946C64.0904 6.21146 64.6664 6.49946 65.3064 6.88346C66.2664 7.49146 67.0664 7.79546 67.7064 7.79546C68.8904 7.79546 69.5784 7.10746 69.7704 5.73146H73.3704C73.0824 7.84346 72.4104 9.42746 71.3544 10.4835C70.3304 11.5075 69.0184 12.0195 67.4184 12.0195C66.7464 12.0195 66.1544 11.9235 65.6424 11.7315C65.1304 11.5075 64.5544 11.2035 63.9144 10.8195C62.9864 10.1795 62.1864 9.85946 61.5144 9.85946C60.3304 9.85946 59.6264 10.5635 59.4024 11.9715H55.8504Z" fill="white"/>
<path d="M95.7736 41.5395C93.2136 41.5395 90.9096 40.9795 88.8616 39.8595C86.8136 38.7075 85.1976 37.0915 84.0136 35.0115C82.8616 32.9315 82.2856 30.5315 82.2856 27.8115C82.2856 25.0915 82.8776 22.6915 84.0616 20.6115C85.2776 18.5315 86.9256 16.9315 89.0056 15.8115C91.0856 14.6595 93.4056 14.0835 95.9656 14.0835C98.5256 14.0835 100.846 14.6595 102.926 15.8115C105.006 16.9315 106.638 18.5315 107.822 20.6115C109.038 22.6915 109.646 25.0915 109.646 27.8115C109.646 30.5315 109.022 32.9315 107.774 35.0115C106.558 37.0915 104.894 38.7075 102.782 39.8595C100.702 40.9795 98.3656 41.5395 95.7736 41.5395ZM95.7736 35.6835C96.9896 35.6835 98.1256 35.3955 99.1816 34.8195C100.27 34.2115 101.134 33.3155 101.774 32.1315C102.414 30.9475 102.734 29.5075 102.734 27.8115C102.734 25.2835 102.062 23.3475 100.718 22.0035C99.4056 20.6275 97.7896 19.9395 95.8696 19.9395C93.9496 19.9395 92.3336 20.6275 91.0216 22.0035C89.7416 23.3475 89.1016 25.2835 89.1016 27.8115C89.1016 30.3395 89.7256 32.2915 90.9736 33.6675C92.2536 35.0115 93.8536 35.6835 95.7736 35.6835Z" fill="white"/>
<path d="M132.732 5.58746V41.1075H126.012V5.58746H132.732Z" fill="white"/>
<path d="M164.476 14.5155V41.1075H157.708V37.7475C156.844 38.8995 155.708 39.8115 154.3 40.4835C152.924 41.1235 151.42 41.4435 149.788 41.4435C147.708 41.4435 145.868 41.0115 144.268 40.1475C142.668 39.2515 141.404 37.9555 140.476 36.2595C139.58 34.5315 139.132 32.4835 139.132 30.1155V14.5155H145.852V29.1555C145.852 31.2675 146.38 32.8995 147.436 34.0515C148.492 35.1715 149.932 35.7315 151.756 35.7315C153.612 35.7315 155.068 35.1715 156.124 34.0515C157.18 32.8995 157.708 31.2675 157.708 29.1555V14.5155H164.476Z" fill="white"/>
<path d="M169.378 27.8115C169.378 25.0595 169.938 22.6595 171.058 20.6115C172.178 18.5315 173.73 16.9315 175.714 15.8115C177.698 14.6595 179.97 14.0835 182.53 14.0835C185.826 14.0835 188.546 14.9155 190.69 16.5795C192.866 18.2115 194.322 20.5155 195.058 23.4915H187.81C187.426 22.3395 186.77 21.4435 185.842 20.8035C184.946 20.1315 183.826 19.7955 182.482 19.7955C180.562 19.7955 179.042 20.4995 177.922 21.9075C176.802 23.2835 176.242 25.2515 176.242 27.8115C176.242 30.3395 176.802 32.3075 177.922 33.7155C179.042 35.0915 180.562 35.7795 182.482 35.7795C185.202 35.7795 186.978 34.5635 187.81 32.1315H195.058C194.322 35.0115 192.866 37.2995 190.69 38.9955C188.514 40.6915 185.794 41.5395 182.53 41.5395C179.97 41.5395 177.698 40.9795 175.714 39.8595C173.73 38.7075 172.178 37.1075 171.058 35.0595C169.938 32.9795 169.378 30.5635 169.378 27.8115Z" fill="white"/>
<path d="M198.253 27.7155C198.253 25.0275 198.781 22.6435 199.837 20.5635C200.925 18.4835 202.381 16.8835 204.205 15.7635C206.061 14.6435 208.125 14.0835 210.397 14.0835C212.381 14.0835 214.109 14.4835 215.581 15.2835C217.085 16.0835 218.285 17.0915 219.181 18.3075V14.5155H225.949V41.1075H219.181V37.2195C218.317 38.4675 217.117 39.5075 215.581 40.3395C214.077 41.1395 212.333 41.5395 210.349 41.5395C208.109 41.5395 206.061 40.9635 204.205 39.8115C202.381 38.6595 200.925 37.0435 199.837 34.9635C198.781 32.8515 198.253 30.4355 198.253 27.7155ZM219.181 27.8115C219.181 26.1795 218.861 24.7875 218.221 23.6355C217.581 22.4515 216.717 21.5555 215.629 20.9475C214.541 20.3075 213.373 19.9875 212.125 19.9875C210.877 19.9875 209.725 20.2915 208.669 20.8995C207.613 21.5075 206.749 22.4035 206.077 23.5875C205.437 24.7395 205.117 26.1155 205.117 27.7155C205.117 29.3155 205.437 30.7235 206.077 31.9395C206.749 33.1235 207.613 34.0355 208.669 34.6755C209.757 35.3155 210.909 35.6355 212.125 35.6355C213.373 35.6355 214.541 35.3315 215.629 34.7235C216.717 34.0835 217.581 33.1875 218.221 32.0355C218.861 30.8515 219.181 29.4435 219.181 27.8115Z" fill="white"/>
<path d="M242.688 41.5395C240.512 41.5395 238.56 41.1555 236.832 40.3875C235.104 39.5875 233.728 38.5155 232.704 37.1715C231.712 35.8275 231.168 34.3395 231.072 32.7075H237.84C237.968 33.7315 238.464 34.5795 239.328 35.2515C240.224 35.9235 241.328 36.2595 242.64 36.2595C243.92 36.2595 244.912 36.0035 245.616 35.4915C246.352 34.9795 246.72 34.3235 246.72 33.5235C246.72 32.6595 246.272 32.0195 245.376 31.6035C244.512 31.1555 243.12 30.6755 241.2 30.1635C239.216 29.6835 237.584 29.1875 236.304 28.6755C235.056 28.1635 233.968 27.3795 233.04 26.3235C232.144 25.2675 231.696 23.8435 231.696 22.0515C231.696 20.5795 232.112 19.2355 232.944 18.0195C233.808 16.8035 235.024 15.8435 236.592 15.1395C238.192 14.4355 240.064 14.0835 242.208 14.0835C245.376 14.0835 247.904 14.8835 249.792 16.4835C251.68 18.0515 252.72 20.1795 252.912 22.8675H246.48C246.384 21.8115 245.936 20.9795 245.136 20.3715C244.368 19.7315 243.328 19.4115 242.016 19.4115C240.8 19.4115 239.856 19.6355 239.184 20.0835C238.544 20.5315 238.224 21.1555 238.224 21.9555C238.224 22.8515 238.672 23.5395 239.568 24.0195C240.464 24.4675 241.856 24.9315 243.744 25.4115C245.664 25.8915 247.248 26.3875 248.496 26.8995C249.744 27.4115 250.816 28.2115 251.712 29.2995C252.64 30.3555 253.12 31.7635 253.152 33.5235C253.152 35.0595 252.72 36.4355 251.856 37.6515C251.024 38.8675 249.808 39.8275 248.208 40.5315C246.64 41.2035 244.8 41.5395 242.688 41.5395Z" fill="white"/>
</svg>
