<svg width="254" height="54" viewBox="0 0 254 54" fill="none" xmlns="http://www.w3.org/2000/svg">
<path d="M35.525 1.27086L39.17 7.07586L7.39998 26.5609L39.17 46.2259L35.12 51.7609L0.919983 30.3859V22.6459L35.525 1.27086Z" fill="#00A78E"/>
<path d="M80.8372 0.539978L115.442 21.915V29.655L81.2872 51.03L77.1922 45.45L108.962 25.83L77.1922 6.25498L80.8372 0.539978Z" fill="#00A78E"/>
<path d="M10.8736 11.3472C9.65761 11.3472 8.64961 10.9792 7.84961 10.2432C7.08161 9.47518 6.69761 8.53118 6.69761 7.41118C6.69761 6.29118 7.08161 5.36318 7.84961 4.62718C8.64961 3.85918 9.65761 3.47518 10.8736 3.47518C12.0576 3.47518 13.0336 3.85918 13.8016 4.62718C14.5696 5.36318 14.9536 6.29118 14.9536 7.41118C14.9536 8.53118 14.5696 9.47518 13.8016 10.2432C13.0336 10.9792 12.0576 11.3472 10.8736 11.3472ZM14.1856 45.4752C14.1856 48.4192 13.4496 50.5312 11.9776 51.8112C10.5376 53.1232 8.45761 53.7792 5.73761 53.7792H2.76161V48.0672H4.68161C5.70561 48.0672 6.42561 47.8592 6.84161 47.4432C7.25761 47.0592 7.46561 46.4192 7.46561 45.5232V14.5152H14.1856V45.4752Z" fill="#151515"/>
<path d="M32.633 41.5392C30.073 41.5392 27.769 40.9792 25.721 39.8592C23.673 38.7072 22.057 37.0912 20.873 35.0112C19.721 32.9312 19.145 30.5312 19.145 27.8112C19.145 25.0912 19.737 22.6912 20.921 20.6112C22.137 18.5312 23.785 16.9312 25.865 15.8112C27.945 14.6592 30.265 14.0832 32.825 14.0832C35.385 14.0832 37.705 14.6592 39.785 15.8112C41.865 16.9312 43.497 18.5312 44.681 20.6112C45.897 22.6912 46.505 25.0912 46.505 27.8112C46.505 30.5312 45.881 32.9312 44.633 35.0112C43.417 37.0912 41.753 38.7072 39.641 39.8592C37.561 40.9792 35.225 41.5392 32.633 41.5392ZM32.633 35.6832C33.849 35.6832 34.985 35.3952 36.041 34.8192C37.129 34.2112 37.993 33.3152 38.633 32.1312C39.273 30.9472 39.593 29.5072 39.593 27.8112C39.593 25.2832 38.921 23.3472 37.577 22.0032C36.265 20.6272 34.649 19.9392 32.729 19.9392C30.809 19.9392 29.193 20.6272 27.881 22.0032C26.601 23.3472 25.961 25.2832 25.961 27.8112C25.961 30.3392 26.585 32.2912 27.833 33.6672C29.113 35.0112 30.713 35.6832 32.633 35.6832Z" fill="#151515"/>
<path d="M49.7064 27.7152C49.7064 25.0272 50.2344 22.6432 51.2904 20.5632C52.3784 18.4832 53.8344 16.8832 55.6584 15.7632C57.5144 14.6432 59.5784 14.0832 61.8504 14.0832C63.8344 14.0832 65.5624 14.4832 67.0344 15.2832C68.5384 16.0832 69.7384 17.0912 70.6344 18.3072V14.5152H77.4024V41.1072H70.6344V37.2192C69.7704 38.4672 68.5704 39.5072 67.0344 40.3392C65.5304 41.1392 63.7864 41.5392 61.8024 41.5392C59.5624 41.5392 57.5144 40.9632 55.6584 39.8112C53.8344 38.6592 52.3784 37.0432 51.2904 34.9632C50.2344 32.8512 49.7064 30.4352 49.7064 27.7152ZM70.6344 27.8112C70.6344 26.1792 70.3144 24.7872 69.6744 23.6352C69.0344 22.4512 68.1704 21.5552 67.0824 20.9472C65.9944 20.3072 64.8264 19.9872 63.5784 19.9872C62.3304 19.9872 61.1784 20.2912 60.1224 20.8992C59.0664 21.5072 58.2024 22.4032 57.5304 23.5872C56.8904 24.7392 56.5704 26.1152 56.5704 27.7152C56.5704 29.3152 56.8904 30.7232 57.5304 31.9392C58.2024 33.1232 59.0664 34.0352 60.1224 34.6752C61.2104 35.3152 62.3624 35.6352 63.5784 35.6352C64.8264 35.6352 65.9944 35.3312 67.0824 34.7232C68.1704 34.0832 69.0344 33.1872 69.6744 32.0352C70.3144 30.8512 70.6344 29.4432 70.6344 27.8112ZM55.8504 11.9712C56.1384 9.85918 56.7944 8.29118 57.8184 7.26718C58.8744 6.21118 60.2024 5.68318 61.8024 5.68318C62.4744 5.68318 63.0664 5.79518 63.5784 6.01918C64.0904 6.21118 64.6664 6.49918 65.3064 6.88318C66.2664 7.49118 67.0664 7.79518 67.7064 7.79518C68.8904 7.79518 69.5784 7.10718 69.7704 5.73118H73.3704C73.0824 7.84318 72.4104 9.42718 71.3544 10.4832C70.3304 11.5072 69.0184 12.0192 67.4184 12.0192C66.7464 12.0192 66.1544 11.9232 65.6424 11.7312C65.1304 11.5072 64.5544 11.2032 63.9144 10.8192C62.9864 10.1792 62.1864 9.85918 61.5144 9.85918C60.3304 9.85918 59.6264 10.5632 59.4024 11.9712H55.8504Z" fill="#151515"/>
<path d="M95.7736 41.5392C93.2136 41.5392 90.9096 40.9792 88.8616 39.8592C86.8136 38.7072 85.1976 37.0912 84.0136 35.0112C82.8616 32.9312 82.2856 30.5312 82.2856 27.8112C82.2856 25.0912 82.8776 22.6912 84.0616 20.6112C85.2776 18.5312 86.9256 16.9312 89.0056 15.8112C91.0856 14.6592 93.4056 14.0832 95.9656 14.0832C98.5256 14.0832 100.846 14.6592 102.926 15.8112C105.006 16.9312 106.638 18.5312 107.822 20.6112C109.038 22.6912 109.646 25.0912 109.646 27.8112C109.646 30.5312 109.022 32.9312 107.774 35.0112C106.558 37.0912 104.894 38.7072 102.782 39.8592C100.702 40.9792 98.3656 41.5392 95.7736 41.5392ZM95.7736 35.6832C96.9896 35.6832 98.1256 35.3952 99.1816 34.8192C100.27 34.2112 101.134 33.3152 101.774 32.1312C102.414 30.9472 102.734 29.5072 102.734 27.8112C102.734 25.2832 102.062 23.3472 100.718 22.0032C99.4056 20.6272 97.7896 19.9392 95.8696 19.9392C93.9496 19.9392 92.3336 20.6272 91.0216 22.0032C89.7416 23.3472 89.1016 25.2832 89.1016 27.8112C89.1016 30.3392 89.7256 32.2912 90.9736 33.6672C92.2536 35.0112 93.8536 35.6832 95.7736 35.6832Z" fill="#151515"/>
<path d="M132.732 5.58718V41.1072H126.012V5.58718H132.732Z" fill="#151515"/>
<path d="M164.476 14.5152V41.1072H157.708V37.7472C156.844 38.8992 155.708 39.8112 154.3 40.4832C152.924 41.1232 151.42 41.4432 149.788 41.4432C147.708 41.4432 145.868 41.0112 144.268 40.1472C142.668 39.2512 141.404 37.9552 140.476 36.2592C139.58 34.5312 139.132 32.4832 139.132 30.1152V14.5152H145.852V29.1552C145.852 31.2672 146.38 32.8992 147.436 34.0512C148.492 35.1712 149.932 35.7312 151.756 35.7312C153.612 35.7312 155.068 35.1712 156.124 34.0512C157.18 32.8992 157.708 31.2672 157.708 29.1552V14.5152H164.476Z" fill="#151515"/>
<path d="M169.378 27.8112C169.378 25.0592 169.938 22.6592 171.058 20.6112C172.178 18.5312 173.73 16.9312 175.714 15.8112C177.698 14.6592 179.97 14.0832 182.53 14.0832C185.826 14.0832 188.546 14.9152 190.69 16.5792C192.866 18.2112 194.322 20.5152 195.058 23.4912H187.81C187.426 22.3392 186.77 21.4432 185.842 20.8032C184.946 20.1312 183.826 19.7952 182.482 19.7952C180.562 19.7952 179.042 20.4992 177.922 21.9072C176.802 23.2832 176.242 25.2512 176.242 27.8112C176.242 30.3392 176.802 32.3072 177.922 33.7152C179.042 35.0912 180.562 35.7792 182.482 35.7792C185.202 35.7792 186.978 34.5632 187.81 32.1312H195.058C194.322 35.0112 192.866 37.2992 190.69 38.9952C188.514 40.6912 185.794 41.5392 182.53 41.5392C179.97 41.5392 177.698 40.9792 175.714 39.8592C173.73 38.7072 172.178 37.1072 171.058 35.0592C169.938 32.9792 169.378 30.5632 169.378 27.8112Z" fill="#151515"/>
<path d="M198.253 27.7152C198.253 25.0272 198.781 22.6432 199.837 20.5632C200.925 18.4832 202.381 16.8832 204.205 15.7632C206.061 14.6432 208.125 14.0832 210.397 14.0832C212.381 14.0832 214.109 14.4832 215.581 15.2832C217.085 16.0832 218.285 17.0912 219.181 18.3072V14.5152H225.949V41.1072H219.181V37.2192C218.317 38.4672 217.117 39.5072 215.581 40.3392C214.077 41.1392 212.333 41.5392 210.349 41.5392C208.109 41.5392 206.061 40.9632 204.205 39.8112C202.381 38.6592 200.925 37.0432 199.837 34.9632C198.781 32.8512 198.253 30.4352 198.253 27.7152ZM219.181 27.8112C219.181 26.1792 218.861 24.7872 218.221 23.6352C217.581 22.4512 216.717 21.5552 215.629 20.9472C214.541 20.3072 213.373 19.9872 212.125 19.9872C210.877 19.9872 209.725 20.2912 208.669 20.8992C207.613 21.5072 206.749 22.4032 206.077 23.5872C205.437 24.7392 205.117 26.1152 205.117 27.7152C205.117 29.3152 205.437 30.7232 206.077 31.9392C206.749 33.1232 207.613 34.0352 208.669 34.6752C209.757 35.3152 210.909 35.6352 212.125 35.6352C213.373 35.6352 214.541 35.3312 215.629 34.7232C216.717 34.0832 217.581 33.1872 218.221 32.0352C218.861 30.8512 219.181 29.4432 219.181 27.8112Z" fill="#151515"/>
<path d="M242.688 41.5392C240.512 41.5392 238.56 41.1552 236.832 40.3872C235.104 39.5872 233.728 38.5152 232.704 37.1712C231.712 35.8272 231.168 34.3392 231.072 32.7072H237.84C237.968 33.7312 238.464 34.5792 239.328 35.2512C240.224 35.9232 241.328 36.2592 242.64 36.2592C243.92 36.2592 244.912 36.0032 245.616 35.4912C246.352 34.9792 246.72 34.3232 246.72 33.5232C246.72 32.6592 246.272 32.0192 245.376 31.6032C244.512 31.1552 243.12 30.6752 241.2 30.1632C239.216 29.6832 237.584 29.1872 236.304 28.6752C235.056 28.1632 233.968 27.3792 233.04 26.3232C232.144 25.2672 231.696 23.8432 231.696 22.0512C231.696 20.5792 232.112 19.2352 232.944 18.0192C233.808 16.8032 235.024 15.8432 236.592 15.1392C238.192 14.4352 240.064 14.0832 242.208 14.0832C245.376 14.0832 247.904 14.8832 249.792 16.4832C251.68 18.0512 252.72 20.1792 252.912 22.8672H246.48C246.384 21.8112 245.936 20.9792 245.136 20.3712C244.368 19.7312 243.328 19.4112 242.016 19.4112C240.8 19.4112 239.856 19.6352 239.184 20.0832C238.544 20.5312 238.224 21.1552 238.224 21.9552C238.224 22.8512 238.672 23.5392 239.568 24.0192C240.464 24.4672 241.856 24.9312 243.744 25.4112C245.664 25.8912 247.248 26.3872 248.496 26.8992C249.744 27.4112 250.816 28.2112 251.712 29.2992C252.64 30.3552 253.12 31.7632 253.152 33.5232C253.152 35.0592 252.72 36.4352 251.856 37.6512C251.024 38.8672 249.808 39.8272 248.208 40.5312C246.64 41.2032 244.8 41.5392 242.688 41.5392Z" fill="#151515"/>
</svg>
