<svg width="60" height="54" viewBox="0 0 60 54" fill="none" xmlns="http://www.w3.org/2000/svg">
<path d="M49.0078 17.7656C48.375 17.5547 47.7422 17.3555 47.1094 17.168C47.2148 16.7344 47.3086 16.3008 47.4023 15.8672C48.8438 8.88281 47.8945 3.26953 44.6953 1.41797C41.6133 -0.351563 36.5859 1.48828 31.5 5.91797C30.9961 6.35156 30.5039 6.80859 30.0352 7.26562C29.7187 6.96094 29.3906 6.65625 29.0625 6.36328C23.7305 1.62891 18.3867 -0.363282 15.1875 1.5C12.1172 3.28125 11.2031 8.56641 12.4922 15.1758C12.6211 15.832 12.7617 16.4766 12.9258 17.1328C12.1758 17.3437 11.4375 17.5781 10.7461 17.8242C4.48828 19.9922 0 23.4141 0 26.9531C0 30.6094 4.78125 34.2773 11.2852 36.5039C11.8125 36.6797 12.3398 36.8555 12.8789 37.0078C12.7031 37.7109 12.5508 38.4023 12.4102 39.1172C11.1797 45.6211 12.1406 50.7773 15.2109 52.5469C18.375 54.375 23.6953 52.5 28.875 47.9648C29.2852 47.6016 29.6953 47.2266 30.1055 46.8281C30.6211 47.332 31.1602 47.8125 31.6992 48.2812C36.7148 52.5937 41.6719 54.3398 44.7305 52.5703C47.8945 50.7422 48.9258 45.1992 47.5898 38.4492C47.4844 37.9336 47.3672 37.4062 47.2383 36.8672C47.6133 36.7617 47.9766 36.6445 48.3398 36.5273C55.1016 34.2891 60 30.668 60 26.9531C60 23.4023 55.3828 19.957 49.0078 17.7656ZM33.1523 7.81641C37.5117 4.01953 41.5781 2.53125 43.4297 3.59766C45.4102 4.73437 46.1719 9.32812 44.9297 15.3633C44.8477 15.7617 44.7656 16.1484 44.6602 16.5352C42.0586 15.9492 39.4219 15.5273 36.7734 15.293C35.25 13.1133 33.5859 11.0273 31.7813 9.07031C32.2383 8.63672 32.6836 8.22656 33.1523 7.81641ZM19.5938 33.0352C20.1914 34.0547 20.8008 35.0742 21.4453 36.0703C19.6172 35.8711 17.8008 35.5781 16.0078 35.1914C16.5234 33.5039 17.168 31.7578 17.918 29.9766C18.457 31.0078 19.0078 32.0273 19.5938 33.0352ZM16.043 18.9375C17.7305 18.5625 19.5234 18.2578 21.3867 18.0234C20.7656 18.9961 20.1562 19.9922 19.582 21C19.0078 21.9961 18.4453 23.0156 17.918 24.0469C17.1797 22.3008 16.5586 20.5898 16.043 18.9375ZM19.2539 27.0117C20.0273 25.3945 20.8711 23.8125 21.7617 22.2539C22.6523 20.6953 23.6133 19.1836 24.6211 17.6953C26.3789 17.5664 28.1719 17.4961 30 17.4961C31.8281 17.4961 33.6328 17.5664 35.3789 17.6953C36.375 19.1719 37.3242 20.6836 38.2266 22.2305C39.1289 23.7773 39.9727 25.3594 40.7695 26.9648C39.9844 28.582 39.1406 30.1758 38.2383 31.7461C37.3477 33.3047 36.3984 34.8164 35.4023 36.3164C33.6562 36.4453 31.8398 36.5039 30 36.5039C28.1602 36.5039 26.3789 36.4453 24.6562 36.3398C23.6367 34.8516 22.6758 33.3281 21.7734 31.7695C20.8711 30.2109 20.0391 28.6289 19.2539 27.0117ZM40.418 33.0117C41.0156 31.9805 41.5781 30.9375 42.1289 29.8828C42.8789 31.582 43.5352 33.3047 44.1094 35.0742C42.293 35.4844 40.4531 35.8008 38.6016 36.0117C39.2344 35.0273 39.832 34.0195 40.418 33.0117ZM42.1055 24.0469C41.5547 23.0156 40.9922 21.9844 40.4062 20.9766C39.832 19.9805 39.2344 18.9961 38.6133 18.0234C40.5 18.2578 42.3047 18.5742 43.9922 18.9609C43.4531 20.6953 42.8203 22.3828 42.1055 24.0469ZM30.0234 10.8633C31.2539 12.1992 32.4141 13.6055 33.4922 15.0586C31.1719 14.9531 28.8398 14.9531 26.5195 15.0586C27.668 13.5469 28.8516 12.1406 30.0234 10.8633ZM16.4297 3.67969C18.3984 2.53125 22.7695 4.17187 27.375 8.25C27.668 8.50781 27.9609 8.78906 28.2656 9.07031C26.4492 11.0273 24.7734 13.1133 23.2383 15.293C20.5898 15.5273 17.9648 15.9375 15.3633 16.5117C15.2109 15.9141 15.082 15.3047 14.9531 14.6953C13.8516 9.02344 14.5781 4.74609 16.4297 3.67969ZM13.5586 34.5703C13.0664 34.4297 12.5859 34.2773 12.1055 34.1133C9.60938 33.3281 6.77344 32.0859 4.72266 30.457C3.53906 29.6367 2.74219 28.3711 2.51953 26.9531C2.51953 24.8086 6.22266 22.0664 11.5664 20.2031C12.2344 19.9687 12.9141 19.7578 13.5938 19.5586C14.3906 22.1016 15.3516 24.5977 16.4648 27.0117C15.3398 29.4609 14.3672 31.9922 13.5586 34.5703ZM27.2227 46.0547C25.2891 47.8242 23.0508 49.2305 20.6133 50.1914C19.3125 50.8125 17.8125 50.8711 16.4766 50.3437C14.6133 49.2656 13.8398 45.1289 14.8945 39.5625C15.0234 38.9062 15.1641 38.25 15.3281 37.6055C17.9531 38.168 20.6016 38.5547 23.2852 38.7539C24.832 40.9453 26.5312 43.043 28.3477 45.0117C27.9727 45.375 27.5977 45.7266 27.2227 46.0547ZM30.0937 43.207C28.8984 41.918 27.7031 40.4883 26.543 38.9531C27.668 39 28.8281 39.0234 30 39.0234C31.207 39.0234 32.3906 39 33.5625 38.9414C32.4844 40.4297 31.3242 41.8477 30.0937 43.207ZM45.4102 46.7226C45.3047 48.1523 44.6016 49.4883 43.4766 50.3906C41.6133 51.4687 37.6406 50.0625 33.3516 46.3828C32.8594 45.9609 32.3672 45.5039 31.8633 45.0352C33.6562 43.0547 35.3086 40.957 36.8086 38.7539C39.4922 38.5312 42.1641 38.1211 44.8008 37.5234C44.918 38.0039 45.0234 38.4844 45.1172 38.9531C45.6914 41.4844 45.7852 44.1211 45.4102 46.7226ZM47.543 34.125C47.2148 34.2305 46.8867 34.3359 46.5469 34.4297C45.7266 31.875 44.7188 29.3789 43.5586 26.9531C44.6836 24.5625 45.6328 22.1016 46.4297 19.582C47.0391 19.7578 47.625 19.9453 48.1875 20.1328C53.6484 22.0078 57.4805 24.7969 57.4805 26.9297C57.4805 29.2266 53.3906 32.1914 47.543 34.125ZM30 32.3672C32.9648 32.3672 35.3672 29.9648 35.3672 27C35.3672 24.0352 32.9648 21.6328 30 21.6328C27.0352 21.6328 24.6328 24.0352 24.6328 27C24.6328 29.9648 27.0352 32.3672 30 32.3672Z" fill="#666666"/>
</svg>
